<svg width="415" height="415" viewBox="0 0 415 415" fill="none" xmlns="http://www.w3.org/2000/svg">
<path d="M173.969 233.638C169.433 228.843 165.618 223.413 162.644 217.518C160.343 212.589 159.189 206.348 159.182 198.795C159.182 191.263 160.343 185 162.644 180.061C165.627 174.174 169.441 168.748 173.969 163.952L306.282 25.2628C275.903 8.64865 241.835 -0.0392805 207.221 0.000133509C92.7752 0.000133509 0 92.911 0 207.5C0 322.089 92.7752 415 207.221 415C243.279 415.042 278.717 405.614 310 387.657L173.969 233.638Z" fill="#6549E1"/>
<path d="M374.768 85L262 198.731L378.989 324C403.157 288.588 415.723 246.619 414.968 203.836C414.212 161.053 400.172 119.547 374.768 85V85Z" fill="#6549E1"/>
</svg>
