<svg width="149" height="39" viewBox="0 0 149 39" fill="none" xmlns="http://www.w3.org/2000/svg">
<path d="M78.9257 31.6038C78.3207 31.6038 77.8846 31.4704 77.6204 31.2056C77.3561 30.9409 77.223 30.5299 77.223 29.9735V17.7906H75.7071C75.0998 17.7906 74.6832 17.6645 74.4574 17.4124C74.2315 17.1602 74.1176 16.7426 74.1156 16.1593V14.9829C74.1156 14.4017 74.2299 13.9877 74.4574 13.7498C74.6849 13.5119 75.1001 13.3895 75.7071 13.3895H77.222V12.4032C77.222 10.1261 77.8343 8.36116 79.0588 7.10846C80.2834 5.85576 82.1328 5.22974 84.607 5.23041C87.1064 5.23041 89.0634 5.74927 90.478 6.78699C90.7562 6.98604 90.8953 7.19206 90.8953 7.3931C90.8819 7.58435 90.8163 7.76823 90.7055 7.92457L89.5313 9.86035C89.3797 10.1131 89.2028 10.2395 89.0008 10.2395C88.8391 10.2282 88.6828 10.1758 88.5468 10.0873C87.7137 9.63343 86.8802 9.40585 86.0464 9.40452C85.1126 9.40452 84.4504 9.6321 84.0596 10.0873C83.6689 10.5424 83.4735 11.2511 83.4735 12.2131V13.3895H87.4124C88.0184 13.3895 88.4349 13.5096 88.6621 13.7498C88.8896 13.9897 89.0028 14.4017 89.0028 14.9829V16.1593C89.0028 16.7412 88.8892 17.1589 88.6621 17.4124C88.4349 17.6658 88.0184 17.7919 87.4124 17.7906H83.4715V29.9725C83.4715 30.5292 83.3454 30.9399 83.093 31.2047C82.8397 31.4704 82.3977 31.6028 81.7668 31.6028L78.9257 31.6038Z" fill="#6549E1"/>
<path d="M93.2437 31.6037C92.6364 31.6037 92.2006 31.471 91.9364 31.2056C91.6721 30.9402 91.5397 30.5295 91.539 29.9735V7.46474C91.539 6.90939 91.6715 6.49204 91.9364 6.21271C92.2013 5.93337 92.6371 5.79437 93.2437 5.79569H96.0838C96.715 5.79569 97.1567 5.9284 97.4091 6.1938C97.6614 6.4592 97.7879 6.88285 97.7885 7.46474V29.9725C97.7885 30.5292 97.662 30.9399 97.4091 31.2046C97.1561 31.4694 96.7143 31.6021 96.0838 31.6027L93.2437 31.6037Z" fill="#6549E1"/>
<path d="M111.498 32.1721C108.141 32.1721 105.535 31.3059 103.678 29.5734C101.822 27.841 100.895 25.4819 100.897 22.4962C100.897 19.5104 101.824 17.1516 103.678 15.4199C105.533 13.6881 108.139 12.8213 111.498 12.8193C114.883 12.8193 117.503 13.6861 119.358 15.4199C121.214 17.1536 122.141 19.5124 122.14 22.4962C122.14 25.4819 121.213 27.841 119.358 29.5734C117.504 31.3059 114.884 32.1721 111.498 32.1721ZM111.498 27.6566C112.938 27.6566 114.036 27.227 114.795 26.3677C115.553 25.5085 115.931 24.217 115.93 22.4932C115.93 20.7986 115.552 19.5213 114.795 18.6614C114.038 17.8015 112.939 17.3703 111.498 17.3676C110.085 17.3676 108.999 17.7989 108.241 18.6614C107.483 19.524 107.105 20.8012 107.106 22.4932C107.106 24.1891 107.484 25.473 108.241 26.3448C108.998 27.2167 110.084 27.6529 111.498 27.6536V27.6566Z" fill="#6549E1"/>
<path d="M128.316 31.6037C127.962 31.6037 127.704 31.5404 127.54 31.4136C127.375 31.2873 127.242 31.0593 127.143 30.7299L122.105 14.2245C122.077 14.1256 122.064 14.0229 122.067 13.92C122.067 13.5664 122.295 13.3895 122.75 13.3895H126.688C127.016 13.3895 127.25 13.4393 127.389 13.5408C127.528 13.6423 127.622 13.8185 127.673 14.0713L130.325 24.203L133.503 15.7433C133.57 15.5188 133.694 15.3156 133.863 15.1541C134.001 15.0407 134.223 14.9839 134.526 14.9839H136.533C136.836 14.9839 137.057 15.0407 137.196 15.1541C137.364 15.3162 137.488 15.5191 137.556 15.7433L140.7 24.203L143.388 14.0713C143.439 13.8185 143.528 13.6423 143.653 13.5408C143.778 13.4393 144.007 13.3895 144.336 13.3895H148.309C148.89 13.3895 149.105 13.6679 148.953 14.2245L143.879 30.7299C143.777 31.0617 143.645 31.2896 143.481 31.4136C143.318 31.5377 143.071 31.6011 142.742 31.6037H139.789C139.461 31.6037 139.219 31.54 139.068 31.4136C138.917 31.2873 138.778 31.0593 138.652 30.7299L135.512 22.1946L132.368 30.7319C132.243 31.0636 132.104 31.2916 131.952 31.4156C131.799 31.5397 131.56 31.6031 131.232 31.6057L128.316 31.6037Z" fill="#6549E1"/>
<path fill-rule="evenodd" clip-rule="evenodd" d="M58.989 22.1508L65.8286 15.195C65.9397 15.087 66.0279 14.9579 66.0882 14.8151C66.1484 14.6723 66.1794 14.5189 66.1793 14.3639C66.1828 14.1202 66.0969 13.8836 65.9379 13.6991C65.8466 13.5992 65.7344 13.5207 65.6095 13.4691C65.4845 13.4175 65.3497 13.3941 65.2147 13.4005H61.8729C61.4864 13.4005 61.2142 13.4423 61.0165 13.5319C60.7987 13.6404 60.6066 13.7945 60.4533 13.9837L54.3389 20.3922C53.8819 20.8988 53.6067 21.3387 53.6008 22.1568C53.5948 22.9749 53.8918 23.3889 54.3389 23.8865L60.6589 31.0454C60.8113 31.24 61.0083 31.395 61.2331 31.4973C61.4734 31.5789 61.7267 31.6146 61.9802 31.6028H65.4293C65.5683 31.607 65.7067 31.5807 65.8345 31.5257C65.9624 31.4706 66.0766 31.3883 66.1693 31.2843C66.3377 31.0967 66.4302 30.8529 66.4286 30.6006C66.4276 30.454 66.3971 30.3092 66.3389 30.1748C66.2807 30.0404 66.196 29.9191 66.0899 29.8183L58.988 22.1498L58.989 22.1508ZM53.0067 19.3163V15.2069C53.0067 14.6257 52.8527 14.1768 52.5478 13.8723C52.2428 13.5677 51.7838 13.4124 51.1798 13.4124H49.2725C48.6635 13.4124 48.2056 13.5707 47.9145 13.8812C47.6235 14.1917 47.4844 14.6306 47.4844 15.2069V29.8461C47.4844 30.3975 47.6304 30.8305 47.9165 31.134C48.2026 31.4376 48.6655 31.6038 49.2745 31.6038H51.1798C51.8216 31.6038 52.2726 31.4495 52.5706 31.134C52.8686 30.8185 53.0017 30.3965 53.0017 29.8461V19.3163H53.0067Z" fill="#6549E1"/>
<path fill-rule="evenodd" clip-rule="evenodd" d="M0.0720606 17.6911C0.992948 7.04085 10.3548 -0.847568 20.9853 0.0730455C31.6157 0.993659 39.4894 10.373 38.5685 21.0252C38.3303 23.8238 37.4854 26.5367 36.0929 28.9745C34.7004 31.4123 32.7938 33.5164 30.5061 35.14L21.4194 26.0344C20.9809 25.5955 20.4159 25.3058 19.8041 25.2063V23.1411C19.8451 23.1111 19.8837 23.0778 19.9193 23.0416L23.4499 19.5075C23.6082 19.348 23.6971 19.1322 23.6971 18.9073C23.6971 18.6824 23.6082 18.4666 23.4499 18.3072L19.9213 14.771C19.8859 14.7345 19.8474 14.7012 19.8061 14.6715V12.6501H25.4615C25.593 12.6499 25.7232 12.6237 25.8446 12.573C25.966 12.5223 26.0762 12.4482 26.169 12.3549C26.2618 12.2615 26.3354 12.1508 26.3854 12.029C26.4355 11.9072 26.4612 11.7767 26.4609 11.6449V5.75398C26.4604 5.4886 26.3549 5.23424 26.1676 5.04658C25.9803 4.85893 25.7264 4.75328 25.4615 4.75275H13.1811C12.9162 4.75354 12.6625 4.85928 12.4753 5.04687C12.288 5.23447 12.1825 5.48868 12.1817 5.75398V11.6449C12.1825 11.9102 12.288 12.1644 12.4753 12.352C12.6625 12.5396 12.9162 12.6454 13.1811 12.6461H18.8375V14.6735C18.7958 14.7026 18.7572 14.736 18.7223 14.773L15.1987 18.3131C15.0421 18.4723 14.9544 18.6868 14.9544 18.9103C14.9544 19.1338 15.0421 19.3483 15.1987 19.5075L18.7272 23.0426C18.7625 23.0793 18.801 23.1126 18.8425 23.1421V25.2073C18.2303 25.3066 17.6649 25.5963 17.2262 26.0353L8.13753 35.142C5.39147 33.1899 3.20249 30.5525 1.78771 27.4914C0.372923 24.4303 -0.218514 21.0519 0.0720606 17.6911V17.6911ZM24.9072 37.8948C21.2641 38.9915 17.3795 38.9915 13.7364 37.8948L19.3213 32.2965L24.9072 37.8929V37.8948Z" fill="#6549E1"/>
</svg>
