<svg width="154" height="39" viewBox="0 0 154 39" fill="none" xmlns="http://www.w3.org/2000/svg">
<path d="M16.1838 21.749C15.7618 21.3027 15.4069 20.7972 15.1302 20.2484C14.9161 19.7896 14.8088 19.2087 14.8081 18.5055C14.8081 17.8044 14.9161 17.2214 15.1302 16.7616C15.4076 16.2136 15.7625 15.7086 16.1838 15.2621L28.4923 2.35169C25.6663 0.805091 22.4971 -0.00365657 19.277 1.24282e-05C8.63055 1.24282e-05 0 8.64896 0 19.3159C0 29.9828 8.63055 38.6318 19.277 38.6318C22.6314 38.6357 25.9281 37.7581 28.8382 36.0865L16.1838 21.749Z" fill="#6549E1"/>
<path d="M34.8413 7.92401L24.4347 18.5055L35.2308 30.1606C37.4611 26.8659 38.6207 22.961 38.551 18.9805C38.4813 15 37.1856 11.1383 34.8413 7.92401V7.92401Z" fill="#6549E1"/>
<path d="M58.0996 18.6803L65.1573 11.5032C65.2717 11.3918 65.3626 11.2586 65.4246 11.1114C65.4866 10.9641 65.5184 10.8059 65.5181 10.6461C65.5226 10.3943 65.4344 10.1496 65.2703 9.95889C65.1763 9.85541 65.0607 9.77393 64.9317 9.72021C64.8027 9.6665 64.6635 9.64186 64.524 9.64804H61.0759C60.6795 9.64804 60.397 9.69174 60.1929 9.78509C59.9679 9.89679 59.7695 10.0556 59.6111 10.2509L53.3116 16.8659C52.8408 17.3883 52.5564 17.8432 52.5495 18.6863C52.5425 19.5294 52.8468 19.9585 53.3086 20.4739L59.8291 27.8606C59.9863 28.0626 60.1904 28.2229 60.4238 28.3274C60.6714 28.4119 60.9326 28.449 61.1939 28.4366H64.7529C64.8965 28.441 65.0393 28.4139 65.1714 28.3571C65.3034 28.3003 65.4214 28.2153 65.5171 28.1079C65.6905 27.9139 65.7858 27.6622 65.7847 27.4018C65.7835 27.2506 65.7519 27.1011 65.6918 26.9624C65.6317 26.8237 65.5443 26.6985 65.4348 26.5944L58.0996 18.6803ZM51.9241 15.7566V11.1427C51.9241 10.5468 51.7645 10.08 51.4503 9.76523C51.1361 9.45042 50.6574 9.29152 50.039 9.29152H48.0776C47.4492 9.29152 46.9775 9.45439 46.6752 9.77417C46.3729 10.0939 46.2302 10.5478 46.2302 11.1427V26.6212C46.2302 27.1903 46.3808 27.6382 46.6752 27.95C46.9695 28.2618 47.4482 28.4356 48.0776 28.4356H50.041C50.704 28.4356 51.1748 28.2767 51.481 27.951C51.7873 27.6252 51.9261 27.1893 51.9261 26.6212V15.7566H51.9241ZM79.6066 20.9367C79.6066 22.0539 79.1775 22.9229 78.2924 23.6042C77.3843 24.3079 76.2637 24.68 75.1159 24.6588C73.55 24.6588 72.3854 24.2805 71.654 23.5366C70.9226 22.7928 70.5569 21.5792 70.5569 19.9336C70.5569 17.8918 71.1109 16.278 72.2041 15.1359C73.2973 13.9939 74.7354 13.4258 76.5649 13.4258C77.1848 13.416 77.804 13.4686 78.4134 13.5827C78.8266 13.6713 79.2284 13.8072 79.6106 13.9879L79.6066 20.9367ZM76.6026 9.09091C74.2874 9.09091 72.2249 9.54575 70.4706 10.4435C68.7495 11.3048 67.3206 12.6564 66.3635 14.3286C65.412 15.99 64.9284 17.9266 64.9284 20.0816C64.9284 22.8732 65.6975 25.0789 67.2148 26.6361C68.7322 28.1933 70.7947 28.9918 73.3389 28.9918C74.995 28.9918 76.4311 28.7614 77.6066 28.3095C78.4929 27.9708 79.3037 27.4598 79.9922 26.8059L80.1032 27.3442C80.15 27.6597 80.3065 27.9485 80.5452 28.1595C80.7682 28.3413 81.0755 28.4346 81.459 28.4346H83.4987C84.022 28.4346 84.3996 28.3204 84.6543 28.0851C84.9091 27.8497 85.0508 27.4624 85.0508 26.9549V11.5459L84.8427 11.4039C82.5958 9.86951 79.8237 9.09091 76.6026 9.09091ZM112.936 10.6084C112.936 10.1446 112.654 9.64804 111.866 9.64804H109.012C108.549 9.64804 108.241 9.7404 108.046 9.93704C107.887 10.0959 107.766 10.3243 107.665 10.663L104.801 20.6417L101.673 12.2281C101.543 11.8716 101.401 11.6323 101.226 11.4773C101.027 11.2966 100.73 11.2092 100.334 11.2092H98.7409C98.3445 11.2092 98.0472 11.3085 97.8301 11.4982C97.6226 11.7015 97.4646 11.9499 97.3682 12.2242L94.2056 20.6427L91.379 10.6809C91.3066 10.3313 91.1639 10.0701 90.9538 9.90129C90.7437 9.73246 90.4384 9.64804 90.0271 9.64804H87.1727C86.3848 9.64804 86.1043 10.1446 86.1043 10.6084C86.1005 10.7565 86.1199 10.9043 86.1618 11.0463L91.2075 27.3333C91.3384 27.7305 91.5138 28.0046 91.7447 28.1774C91.9806 28.3532 92.2908 28.4396 92.6972 28.4396H94.8112C95.1938 28.4396 95.505 28.3472 95.723 28.1645C95.9212 28.0006 96.0947 27.7404 96.2582 27.3482L99.5199 18.5562L102.791 27.3651C102.945 27.7375 103.102 27.9867 103.286 28.1496C103.501 28.3482 103.801 28.4396 104.197 28.4396H106.348C106.752 28.4396 107.055 28.3611 107.276 28.1993C107.497 28.0374 107.673 27.7553 107.803 27.3243L112.877 11.0533C112.92 10.9091 112.941 10.7589 112.938 10.6084H112.936ZM127.009 20.9367C127.009 22.0539 126.579 22.9229 125.695 23.6042C124.786 24.3081 123.665 24.6802 122.517 24.6588C120.951 24.6588 119.786 24.2805 119.055 23.5366C118.323 22.7928 117.951 21.5792 117.951 19.9336C117.951 17.8918 118.505 16.278 119.597 15.1359C120.689 13.9939 122.129 13.4258 123.958 13.4258C124.577 13.4159 125.197 13.4685 125.806 13.5827C126.22 13.6713 126.622 13.8072 127.004 13.9879L127.009 20.9367ZM123.997 9.09091C121.682 9.09091 119.619 9.54575 117.866 10.4435C116.145 11.3042 114.716 12.656 113.759 14.3286C112.807 15.99 112.324 17.9266 112.324 20.0816C112.324 22.8732 113.093 25.0789 114.61 26.6361C116.126 28.1933 118.188 28.9918 120.735 28.9918C122.39 28.9918 123.826 28.7614 125.002 28.3095C125.888 27.9707 126.699 27.4597 127.387 26.8059L127.498 27.3442C127.545 27.6597 127.702 27.9483 127.941 28.1595C128.163 28.3413 128.471 28.4346 128.854 28.4346H130.893C131.417 28.4346 131.795 28.3204 132.049 28.0851C132.303 27.8497 132.445 27.4624 132.445 26.9549V11.5459L132.237 11.4039C129.99 9.86951 127.218 9.09091 123.997 9.09091ZM146.32 18.6803L153.378 11.5032C153.492 11.3919 153.583 11.2587 153.645 11.1115C153.708 10.9642 153.74 10.806 153.739 10.6461C153.744 10.3942 153.655 10.1495 153.491 9.95889C153.397 9.85541 153.281 9.77393 153.152 9.72021C153.023 9.6665 152.884 9.64186 152.744 9.64804H149.296C148.9 9.64804 148.617 9.69174 148.413 9.78509C148.188 9.89679 147.99 10.0556 147.831 10.2509L141.527 16.8659C141.057 17.3883 140.772 17.8432 140.765 18.6863C140.758 19.5294 141.062 19.9585 141.524 20.4739L148.044 27.8606C148.202 28.0626 148.406 28.2229 148.639 28.3274C148.887 28.4119 149.148 28.449 149.409 28.4366H152.969C153.113 28.4406 153.255 28.4132 153.387 28.3564C153.519 28.2997 153.637 28.2149 153.733 28.1079C153.906 27.9135 154.001 27.662 154 27.4018C153.999 27.2507 153.967 27.1013 153.907 26.9626C153.848 26.8239 153.76 26.6987 153.651 26.5944L146.317 18.6813L146.32 18.6803ZM140.148 15.7566V11.1427C140.148 10.5468 139.989 10.08 139.676 9.76523C139.362 9.45042 138.883 9.29152 138.264 9.29152H136.298C135.67 9.29152 135.198 9.45439 134.895 9.77417C134.593 10.0939 134.45 10.5478 134.45 11.1427V26.6212C134.45 27.1903 134.6 27.6382 134.895 27.95C135.191 28.2618 135.669 28.4356 136.298 28.4356H138.264C138.925 28.4356 139.397 28.2767 139.703 27.951C140.01 27.6252 140.148 27.1893 140.148 26.6212V15.7566V15.7566Z" fill="#6549E1"/>
</svg>
