<svg width="157" height="40" viewBox="0 0 157 40" fill="none" xmlns="http://www.w3.org/2000/svg">
<g clip-path="url(#clip0_203_652)">
<path d="M16.4992 22.097C16.0041 21.5492 15.6454 21.0396 15.4262 20.5724C15.2069 20.1063 15.0968 19.515 15.0968 18.8006C15.0968 18.0863 15.2069 17.497 15.4262 17.0288C15.6464 16.5627 16.0041 16.0542 16.4992 15.5053L29.0477 2.38527C26.2569 0.864711 23.0569 0 19.6528 0C8.79879 0 0 8.78736 0 19.625C0 30.4626 8.79879 39.25 19.6528 39.25C23.2014 39.25 26.5267 38.3066 29.3994 36.6639L16.4982 22.097H16.4992Z" fill="white"/>
<path d="M35.5205 8.05081L24.9131 18.8017L35.9176 30.6433C38.0557 27.5013 39.3056 23.7105 39.3056 19.625C39.3056 15.2944 37.8991 11.2957 35.5205 8.0498V8.05081Z" fill="white"/>
<path d="M59.2322 18.9792L66.4274 11.6862C66.6689 11.444 66.7952 11.1433 66.7952 10.8154C66.7952 10.548 66.7083 10.3079 66.5416 10.1172C66.4143 9.9729 66.1799 9.80137 65.7808 9.80137H62.2655C61.8593 9.80137 61.5733 9.84576 61.3652 9.94061C61.1631 10.0324 60.9691 10.1878 60.7721 10.4138L54.3448 17.1348C53.8658 17.6655 53.5748 18.1276 53.5677 18.9842C53.5607 19.8308 53.8709 20.2758 54.3417 20.7984L60.9893 28.3033C61.1944 28.5425 61.3915 28.6969 61.5935 28.7766C61.7815 28.8522 62.03 28.8876 62.3786 28.8876H66.0081C66.4052 28.8876 66.6497 28.7069 66.7871 28.5536C66.965 28.3528 67.06 28.1046 67.06 27.8362C67.06 27.6233 66.9963 27.3075 66.7033 27.0159L59.2312 18.9762L59.2322 18.9792ZM52.9403 16.0077V11.3209C52.9403 10.7115 52.7776 10.2413 52.4583 9.92144C52.138 9.60159 51.654 9.44015 51.0194 9.44015H49.0158C48.3752 9.44015 47.8942 9.60562 47.586 9.93052C47.2849 10.2494 47.1323 10.7165 47.1323 11.3209V27.0471C47.1323 27.6253 47.2859 28.0804 47.586 28.3972C47.8942 28.7241 48.3741 28.8896 49.0158 28.8896H51.0194C51.6944 28.8896 52.1744 28.7281 52.4876 28.3982C52.7887 28.0793 52.9403 27.6243 52.9403 27.0471V16.0077ZM81.1635 21.2716C81.1635 22.4058 80.726 23.2927 79.8237 23.9818C78.8809 24.7022 77.821 25.0524 76.5842 25.0524C74.9878 25.0524 73.8005 24.6689 73.0548 23.9132C72.3081 23.1554 71.9292 21.9245 71.9292 20.2515C71.9292 18.1771 72.494 16.5374 73.6085 15.3781C74.7331 14.2087 76.1892 13.6396 78.0595 13.6396C78.8021 13.6396 79.4367 13.6931 79.9439 13.799C80.3511 13.8848 80.7613 14.023 81.1645 14.2107V21.2706L81.1635 21.2716ZM78.0958 9.23633C75.7355 9.23633 73.6328 9.69845 71.8453 10.6106C70.0417 11.5318 68.6322 12.8596 67.6581 14.5568C66.6871 16.2458 66.195 18.2134 66.195 20.4029C66.195 23.2392 66.9791 25.4802 68.5261 27.0633C70.0751 28.6514 72.1757 29.4566 74.7695 29.4566C76.4579 29.4566 77.922 29.2225 79.1204 28.7634C80.0369 28.4113 80.8513 27.8997 81.5525 27.2358L81.6657 27.7827C81.7384 28.147 81.891 28.4254 82.1163 28.6111C82.3437 28.7957 82.6569 28.8906 83.0479 28.8906H85.1274C85.6609 28.8906 86.0469 28.7745 86.3055 28.5354C86.5733 28.2882 86.7077 27.9028 86.7077 27.3872V11.7306L86.4955 11.5863C84.2059 10.0274 81.3797 9.23633 78.0958 9.23633V9.23633ZM115.137 10.7781C115.137 10.3069 114.85 9.80238 114.048 9.80238H111.137C110.665 9.80238 110.351 9.89621 110.152 10.096C109.989 10.2574 109.866 10.4895 109.764 10.8336L106.843 20.972L103.654 12.4237C103.521 12.0625 103.377 11.8204 103.199 11.6609C102.991 11.4773 102.695 11.3885 102.291 11.3885H100.666C100.267 11.3885 99.9534 11.4874 99.7371 11.6821C99.5522 11.8476 99.3997 12.0857 99.2663 12.4197L96.043 20.973L93.1613 10.8517C93.0865 10.4966 92.941 10.2312 92.7278 10.0597C92.5106 9.88713 92.2024 9.80238 91.7831 9.80238H88.872C88.0687 9.80238 87.7838 10.3059 87.7838 10.7781C87.7838 10.9587 87.804 11.108 87.8424 11.223L92.9865 27.7655C93.1199 28.1661 93.2997 28.4476 93.5341 28.6232C93.7746 28.8028 94.0909 28.8906 94.5051 28.8906H96.6604C97.0504 28.8906 97.3636 28.7967 97.591 28.6111C97.7941 28.4446 97.9689 28.1802 98.1356 27.7817L101.461 18.849L104.792 27.7988C104.95 28.1762 105.11 28.4305 105.293 28.596C105.514 28.7947 105.818 28.8906 106.223 28.8906H108.416C108.827 28.8906 109.137 28.8109 109.362 28.6464C109.594 28.4789 109.764 28.1964 109.899 27.7575L115.076 11.2301C115.118 11.102 115.138 10.9536 115.138 10.7781H115.137ZM129.482 21.2716C129.482 22.4058 129.045 23.2927 128.142 23.9818C127.2 24.7022 126.14 25.0524 124.903 25.0524C123.306 25.0524 122.119 24.6689 121.373 23.9132C120.626 23.1554 120.248 21.9245 120.248 20.2515C120.248 18.1771 120.813 16.5374 121.927 15.3781C123.052 14.2087 124.508 13.6396 126.378 13.6396C127.122 13.6396 127.755 13.6931 128.262 13.799C128.67 13.8848 129.08 14.023 129.483 14.2107V21.2706L129.482 21.2716ZM126.414 9.23633C124.054 9.23633 121.95 9.69845 120.164 10.6106C118.36 11.5318 116.951 12.8596 115.977 14.5568C115.006 16.2458 114.514 18.2134 114.514 20.4029C114.514 23.2392 115.298 25.4802 116.845 27.0633C118.394 28.6514 120.493 29.4566 123.088 29.4566C124.777 29.4566 126.241 29.2225 127.439 28.7634C128.354 28.4123 129.17 27.8997 129.871 27.2358L129.984 27.7827C130.057 28.147 130.21 28.4254 130.436 28.6111C130.662 28.7957 130.975 28.8906 131.367 28.8906H133.446C133.979 28.8906 134.365 28.7745 134.624 28.5354C134.892 28.2882 135.026 27.9028 135.026 27.3872V11.7306L134.814 11.5863C132.524 10.0274 129.698 9.23633 126.414 9.23633V9.23633ZM149.172 18.9792L156.367 11.6862C156.609 11.444 156.735 11.1433 156.735 10.8154C156.735 10.548 156.648 10.3079 156.482 10.1172C156.354 9.9729 156.12 9.80137 155.721 9.80137H152.206C151.799 9.80137 151.513 9.84576 151.305 9.94061C151.103 10.0324 150.909 10.1878 150.712 10.4138L144.285 17.1348C143.806 17.6655 143.515 18.1276 143.508 18.9842C143.501 19.8308 143.811 20.2758 144.282 20.7984L150.929 28.3033C151.134 28.5425 151.332 28.6969 151.534 28.7766C151.722 28.8522 151.97 28.8876 152.319 28.8876H155.948C156.345 28.8876 156.59 28.7069 156.727 28.5536C156.905 28.3528 157 28.1046 157 27.8362C157 27.6233 156.936 27.3075 156.643 27.0159L149.171 18.9762L149.172 18.9792ZM142.88 16.0077V11.3209C142.88 10.7115 142.718 10.2413 142.398 9.92144C142.079 9.60159 141.594 9.44015 140.96 9.44015H138.956C138.315 9.44015 137.834 9.60562 137.526 9.93052C137.225 10.2494 137.072 10.7165 137.072 11.3209V27.0471C137.072 27.6253 137.225 28.0804 137.526 28.3972C137.834 28.7241 138.314 28.8896 138.956 28.8896H140.96C141.633 28.8896 142.114 28.7281 142.427 28.3982C142.729 28.0793 142.88 27.6243 142.88 27.0471V16.0077Z" fill="white"/>
</g>
<defs>
<clipPath id="clip0_203_652">
<rect width="157" height="39.25" fill="white"/>
</clipPath>
</defs>
</svg>
