<svg width="35" height="35" viewBox="0 0 35 35" fill="none" xmlns="http://www.w3.org/2000/svg">
<path d="M3.5 24.5V31.5H10.5V24.5H3.5ZM24.5 19.25H10.5C10.0359 19.25 9.59075 19.4344 9.26256 19.7626C8.93437 20.0908 8.75 20.5359 8.75 21H10.5C11.4283 21 12.3185 21.3687 12.9749 22.0251C13.6313 22.6815 14 23.5717 14 24.5V31.5C14 32.4283 13.6313 33.3185 12.9749 33.9749C12.3185 34.6312 11.4283 35 10.5 35H3.5C2.57174 35 1.6815 34.6312 1.02513 33.9749C0.368749 33.3185 0 32.4283 0 31.5V24.5C0 23.5717 0.368749 22.6815 1.02513 22.0251C1.6815 21.3687 2.57174 21 3.5 21H5.25C5.25 19.6076 5.80312 18.2723 6.78769 17.2877C7.77226 16.3031 9.10761 15.75 10.5 15.75H15.75V14H14C13.0717 14 12.1815 13.6313 11.5251 12.9749C10.8687 12.3185 10.5 11.4283 10.5 10.5V3.5C10.5 2.57174 10.8687 1.6815 11.5251 1.02513C12.1815 0.368749 13.0717 0 14 0L21 0C21.9283 0 22.8185 0.368749 23.4749 1.02513C24.1313 1.6815 24.5 2.57174 24.5 3.5V10.5C24.5 11.4283 24.1313 12.3185 23.4749 12.9749C22.8185 13.6313 21.9283 14 21 14H19.25V15.75H24.5C25.8924 15.75 27.2277 16.3031 28.2123 17.2877C29.1969 18.2723 29.75 19.6076 29.75 21H31.5C32.4283 21 33.3185 21.3687 33.9749 22.0251C34.6312 22.6815 35 23.5717 35 24.5V31.5C35 32.4283 34.6312 33.3185 33.9749 33.9749C33.3185 34.6312 32.4283 35 31.5 35H24.5C23.5717 35 22.6815 34.6312 22.0251 33.9749C21.3687 33.3185 21 32.4283 21 31.5V24.5C21 23.5717 21.3687 22.6815 22.0251 22.0251C22.6815 21.3687 23.5717 21 24.5 21H26.25C26.25 20.5359 26.0656 20.0908 25.7374 19.7626C25.4092 19.4344 24.9641 19.25 24.5 19.25ZM14 3.5V10.5H21V3.5H14ZM24.5 24.5V31.5H31.5V24.5H24.5Z" fill="#A9A9A9"/>
</svg>
